<?xml version="1.0" encoding="utf-8"?>
<!-- Generator: Adobe Illustrator 22.1.0, SVG Export Plug-In . SVG Version: 6.00 Build 0)  -->
<svg version="1.1" xmlns="http://www.w3.org/2000/svg" xmlns:xlink="http://www.w3.org/1999/xlink" x="0px" y="0px"
	 viewBox="0 0 321.2 122.9" style="enable-background:new 0 0 321.2 122.9;" xml:space="preserve">
<style type="text/css">
	.st0{fill:#333333;}
	.st1{fill:#FD746C;}
</style>
<g id="Camada_2">
</g>
<g id="Camada_1">
	<g>
		<path class="st0" d="M21.5,108.9c-0.3,2.4-1.1,4.2-2.6,5.4c-1.5,1.3-3.4,1.9-5.8,1.9c-2.6,0-4.7-0.9-6.3-2.8
			c-1.6-1.9-2.4-4.4-2.4-7.6v-2.1c0-2.1,0.4-3.9,1.1-5.5c0.7-1.6,1.8-2.8,3.1-3.6c1.4-0.8,2.9-1.3,4.7-1.3c2.4,0,4.3,0.7,5.7,2
			c1.4,1.3,2.3,3.1,2.5,5.5h-2.9c-0.3-1.8-0.8-3.1-1.7-3.9c-0.8-0.8-2-1.2-3.6-1.2c-1.9,0-3.3,0.7-4.4,2.1c-1.1,1.4-1.6,3.4-1.6,5.9
			v2.2c0,2.4,0.5,4.3,1.5,5.8c1,1.4,2.4,2.1,4.2,2.1c1.6,0,2.9-0.4,3.7-1.1s1.4-2,1.7-3.9H21.5z"/>
		<path class="st0" d="M45.8,105.6c0,2.2-0.4,4.1-1.1,5.7c-0.7,1.6-1.8,2.9-3.1,3.7c-1.3,0.9-2.9,1.3-4.7,1.3
			c-1.8,0-3.3-0.4-4.7-1.3c-1.4-0.9-2.4-2.1-3.2-3.7c-0.7-1.6-1.1-3.4-1.2-5.5v-1.6c0-2.1,0.4-4,1.1-5.7c0.7-1.6,1.8-2.9,3.2-3.8
			c1.4-0.9,2.9-1.3,4.7-1.3c1.8,0,3.4,0.4,4.7,1.3c1.4,0.9,2.4,2.1,3.1,3.7c0.7,1.6,1.1,3.5,1.1,5.7V105.6z M42.8,104.1
			c0-2.6-0.5-4.7-1.6-6.1c-1.1-1.4-2.5-2.1-4.4-2.1c-1.9,0-3.3,0.7-4.4,2.1c-1.1,1.4-1.6,3.4-1.6,5.9v1.6c0,2.6,0.5,4.6,1.6,6
			c1.1,1.5,2.6,2.2,4.4,2.2c1.9,0,3.4-0.7,4.4-2.1c1-1.4,1.6-3.4,1.6-5.9V104.1z"/>
		<path class="st0" d="M69.6,108.9c-0.3,2.4-1.1,4.2-2.6,5.4c-1.5,1.3-3.4,1.9-5.8,1.9c-2.6,0-4.7-0.9-6.3-2.8
			c-1.6-1.9-2.4-4.4-2.4-7.6v-2.1c0-2.1,0.4-3.9,1.1-5.5c0.7-1.6,1.8-2.8,3.1-3.6c1.4-0.8,2.9-1.3,4.7-1.3c2.4,0,4.3,0.7,5.7,2
			s2.3,3.1,2.5,5.5h-2.9c-0.3-1.8-0.8-3.1-1.7-3.9c-0.8-0.8-2-1.2-3.6-1.2c-1.9,0-3.3,0.7-4.4,2.1c-1.1,1.4-1.6,3.4-1.6,5.9v2.2
			c0,2.4,0.5,4.3,1.5,5.8c1,1.4,2.4,2.1,4.2,2.1c1.6,0,2.9-0.4,3.7-1.1c0.9-0.7,1.4-2,1.7-3.9H69.6z"/>
		<path class="st0" d="M82.4,105.6l-2.7,2.8v7.5h-2.9V93.7h2.9v11l9.9-11h3.5l-8.7,9.8l9.4,12.4h-3.5L82.4,105.6z"/>
		<path class="st0" d="M114.9,96.1h-7.1V116h-2.9V96.1h-7.1v-2.4h17.2V96.1z"/>
		<path class="st0" d="M132.3,110.1H123l-2.1,5.8h-3l8.5-22.2h2.6l8.5,22.2h-3L132.3,110.1z M123.9,107.7h7.6l-3.8-10.4L123.9,107.7
			z"/>
		<path class="st0" d="M146.7,116h-2.9V93.7h2.9V116z"/>
		<path class="st0" d="M158.2,113.6h10.5v2.4h-13.5V93.7h2.9V113.6z"/>
		<path class="st0" d="M192.6,106.1c-2.5-0.7-4.3-1.6-5.5-2.7c-1.1-1.1-1.7-2.4-1.7-3.9c0-1.8,0.7-3.2,2.1-4.3
			c1.4-1.1,3.2-1.7,5.5-1.7c1.5,0,2.9,0.3,4.1,0.9c1.2,0.6,2.1,1.4,2.8,2.4c0.7,1,1,2.2,1,3.4h-2.9c0-1.3-0.4-2.4-1.3-3.2
			c-0.9-0.8-2.1-1.2-3.6-1.2c-1.4,0-2.6,0.3-3.4,1c-0.8,0.6-1.2,1.5-1.2,2.7c0,0.9,0.4,1.7,1.2,2.3c0.8,0.6,2.1,1.2,3.9,1.7
			c1.8,0.5,3.3,1.1,4.3,1.7c1,0.6,1.8,1.4,2.3,2.2c0.5,0.8,0.8,1.8,0.8,2.9c0,1.8-0.7,3.2-2.1,4.3c-1.4,1.1-3.3,1.6-5.6,1.6
			c-1.5,0-3-0.3-4.3-0.9c-1.3-0.6-2.3-1.4-3.1-2.4c-0.7-1-1.1-2.2-1.1-3.5h2.9c0,1.3,0.5,2.4,1.5,3.2c1,0.8,2.3,1.2,4,1.2
			c1.5,0,2.7-0.3,3.6-0.9c0.8-0.6,1.2-1.5,1.2-2.6c0-1.1-0.4-1.9-1.1-2.5C196,107.2,194.6,106.6,192.6,106.1z"/>
		<path class="st0" d="M220.3,105.7h-9.6v7.9h11.2v2.4h-14.1V93.7h14v2.4h-11v7.2h9.6V105.7z"/>
		<path class="st0" d="M240.9,110.1h-9.3l-2.1,5.8h-3l8.5-22.2h2.6L246,116h-3L240.9,110.1z M232.5,107.7h7.6l-3.8-10.4L232.5,107.7
			z"/>
		<path class="st0" d="M260.3,107h-5.2v9h-2.9V93.7h7.4c2.5,0,4.4,0.6,5.8,1.7c1.3,1.1,2,2.8,2,5c0,1.4-0.4,2.6-1.1,3.6
			c-0.7,1-1.8,1.8-3.1,2.3l5.2,9.4v0.2h-3.1L260.3,107z M255.1,104.6h4.5c1.5,0,2.6-0.4,3.5-1.1c0.9-0.8,1.3-1.8,1.3-3
			c0-1.4-0.4-2.4-1.2-3.2c-0.8-0.7-2-1.1-3.5-1.1h-4.5V104.6z"/>
		<path class="st0" d="M290.9,108.9c-0.3,2.4-1.1,4.2-2.6,5.4c-1.5,1.3-3.4,1.9-5.8,1.9c-2.6,0-4.7-0.9-6.3-2.8
			c-1.6-1.9-2.4-4.4-2.4-7.6v-2.1c0-2.1,0.4-3.9,1.1-5.5c0.7-1.6,1.8-2.8,3.1-3.6c1.4-0.8,2.9-1.3,4.7-1.3c2.4,0,4.3,0.7,5.7,2
			c1.4,1.3,2.3,3.1,2.5,5.5h-2.9c-0.3-1.8-0.8-3.1-1.7-3.9c-0.8-0.8-2-1.2-3.6-1.2c-1.9,0-3.3,0.7-4.4,2.1c-1.1,1.4-1.6,3.4-1.6,5.9
			v2.2c0,2.4,0.5,4.3,1.5,5.8c1,1.4,2.4,2.1,4.2,2.1c1.6,0,2.9-0.4,3.7-1.1c0.9-0.7,1.4-2,1.7-3.9H290.9z"/>
		<path class="st0" d="M315.1,116h-2.9v-10.3h-11.2V116H298V93.7h2.9v9.6h11.2v-9.6h2.9V116z"/>
	</g>
	<path class="st1" d="M183.9,39.2l0.9-0.9l13.9-12.7h-52l-11.6-11l-0.7,0.8l10.8,10.2h-24.4l13.9,12.7l0.9,0.9l23.4,21.5v14.9h-12v1
		h25.1v-1h-12V61L183.9,39.2z M196,26.6l-12.5,11.5h-13.8c-0.1-2.5-1.2-4.9-3.1-6.7c-3.9-3.6-9.9-3.6-13.7,0l-5.1-4.8H196z
		 M150.9,38.1c0.1-2,0.9-4,2.4-5.6c1.7-1.8,4.1-2.8,6.5-2.8c2.2,0,4.4,0.8,6.1,2.4c1.7,1.6,2.6,3.8,2.8,5.9H150.9z M168.6,39.2
		c-0.1,2-0.9,4-2.4,5.6c-3.4,3.6-9,3.7-12.6,0.4c-1.7-1.6-2.6-3.8-2.8-5.9H168.6z M146.3,26.6l5.9,5.6c-1.5,1.7-2.2,3.8-2.3,5.9H136
		l-12.5-11.5H146.3z M149.8,39.2c0.1,2.5,1.2,4.9,3.1,6.7c1.9,1.8,4.4,2.7,6.8,2.7c2.6,0,5.3-1,7.2-3.1c1.7-1.8,2.6-4,2.7-6.3h12.7
		l-22.6,20.7l-22.6-20.7H149.8z"/>
	<path class="st1" d="M160.4,30.9V32c3.5,0.2,6.3,3.2,6.3,6.7s-2.8,6.5-6.3,6.7v1.1c4.1-0.2,7.4-3.6,7.4-7.8S164.5,31.2,160.4,30.9z
		"/>
	<path class="st1" d="M154.3,42.9l-0.9,0.6c1.4,1.7,3.1,2.9,5.8,3.1v-1.1C157.2,45.3,155.4,44.3,154.3,42.9z"/>
</g>
</svg>
